<svg width="1280" height="420" viewBox="0 0 1280 420" fill="none" xmlns="http://www.w3.org/2000/svg" role="img" aria-labelledby="title desc">
  <title id="title">crisxuan profile banner</title>
  <desc id="desc">A modern GitHub profile banner for crisxuan, focused on AI tools and automation.</desc>
  <defs>
    <linearGradient id="bg" x1="0" y1="0" x2="1280" y2="420" gradientUnits="userSpaceOnUse">
      <stop offset="0" stop-color="#07111F"/>
      <stop offset="0.5" stop-color="#0D1B2A"/>
      <stop offset="1" stop-color="#101827"/>
    </linearGradient>
    <linearGradient id="line" x1="164" y1="68" x2="1113" y2="350" gradientUnits="userSpaceOnUse">
      <stop stop-color="#06B6D4"/>
      <stop offset="0.48" stop-color="#34D399"/>
      <stop offset="1" stop-color="#F59E0B"/>
    </linearGradient>
    <radialGradient id="glowA" cx="0" cy="0" r="1" gradientUnits="userSpaceOnUse" gradientTransform="translate(954 72) rotate(133.32) scale(454 280)">
      <stop stop-color="#06B6D4" stop-opacity="0.36"/>
      <stop offset="1" stop-color="#06B6D4" stop-opacity="0"/>
    </radialGradient>
    <radialGradient id="glowB" cx="0" cy="0" r="1" gradientUnits="userSpaceOnUse" gradientTransform="translate(256 350) rotate(-29.62) scale(436 250)">
      <stop stop-color="#34D399" stop-opacity="0.28"/>
      <stop offset="1" stop-color="#34D399" stop-opacity="0"/>
    </radialGradient>
    <filter id="softGlow" x="-80" y="-80" width="1440" height="580" color-interpolation-filters="sRGB">
      <feGaussianBlur stdDeviation="26"/>
    </filter>
    <pattern id="grid" width="42" height="42" patternUnits="userSpaceOnUse">
      <path d="M42 0H0V42" stroke="#94A3B8" stroke-opacity="0.08" stroke-width="1"/>
    </pattern>
  </defs>

  <rect width="1280" height="420" rx="32" fill="url(#bg)"/>
  <rect width="1280" height="420" rx="32" fill="url(#grid)"/>
  <rect width="1280" height="420" rx="32" fill="url(#glowA)"/>
  <rect width="1280" height="420" rx="32" fill="url(#glowB)"/>

  <g opacity="0.58" filter="url(#softGlow)">
    <path d="M164 310C292 184 401 154 544 218C684 281 760 274 894 142C977 61 1056 54 1113 96" stroke="url(#line)" stroke-width="18" stroke-linecap="round"/>
  </g>

  <path d="M164 310C292 184 401 154 544 218C684 281 760 274 894 142C977 61 1056 54 1113 96" stroke="url(#line)" stroke-width="4" stroke-linecap="round"/>
  <path d="M164 310C292 184 401 154 544 218C684 281 760 274 894 142C977 61 1056 54 1113 96" stroke="#F8FAFC" stroke-opacity="0.22" stroke-width="1" stroke-linecap="round"/>

  <g opacity="0.95">
    <circle cx="164" cy="310" r="8" fill="#06B6D4"/>
    <circle cx="544" cy="218" r="8" fill="#34D399"/>
    <circle cx="894" cy="142" r="8" fill="#F59E0B"/>
    <circle cx="1113" cy="96" r="8" fill="#06B6D4"/>
  </g>

  <g transform="translate(843 202)">
    <rect x="0" y="0" width="274" height="112" rx="22" fill="#020617" fill-opacity="0.52" stroke="#E2E8F0" stroke-opacity="0.12"/>
    <text x="26" y="41" fill="#E2E8F0" font-family="Inter, ui-sans-serif, system-ui, -apple-system, BlinkMacSystemFont, Segoe UI, sans-serif" font-size="18" font-weight="700">workflow status</text>
    <text x="26" y="74" fill="#94A3B8" font-family="Inter, ui-sans-serif, system-ui, -apple-system, BlinkMacSystemFont, Segoe UI, sans-serif" font-size="15">collect  ->  reason  ->  ship</text>
    <rect x="26" y="88" width="222" height="8" rx="4" fill="#1E293B"/>
    <rect x="26" y="88" width="168" height="8" rx="4" fill="#34D399"/>
  </g>

  <g transform="translate(132 92)">
    <text fill="#38BDF8" font-family="Inter, ui-sans-serif, system-ui, -apple-system, BlinkMacSystemFont, Segoe UI, sans-serif" font-size="16" font-weight="700" letter-spacing="4">AI TOOLS / AUTOMATION / CONTENT SYSTEMS</text>
    <text y="76" fill="#F8FAFC" font-family="Inter, ui-sans-serif, system-ui, -apple-system, BlinkMacSystemFont, Segoe UI, sans-serif" font-size="72" font-weight="800">crisxuan</text>
    <text y="124" fill="#CBD5E1" font-family="Inter, ui-sans-serif, system-ui, -apple-system, BlinkMacSystemFont, Segoe UI, sans-serif" font-size="24" font-weight="500">把 AI 变成能稳定交付的工作流和产品。</text>

    <g transform="translate(0 172)">
      <rect x="0" y="0" width="132" height="38" rx="19" fill="#0F172A" stroke="#06B6D4" stroke-opacity="0.42"/>
      <text x="22" y="25" fill="#BAE6FD" font-family="Inter, ui-sans-serif, system-ui, -apple-system, BlinkMacSystemFont, Segoe UI, sans-serif" font-size="15" font-weight="700">AI Agent</text>

      <rect x="148" y="0" width="158" height="38" rx="19" fill="#0F172A" stroke="#34D399" stroke-opacity="0.42"/>
      <text x="171" y="25" fill="#BBF7D0" font-family="Inter, ui-sans-serif, system-ui, -apple-system, BlinkMacSystemFont, Segoe UI, sans-serif" font-size="15" font-weight="700">Automation</text>

      <rect x="322" y="0" width="154" height="38" rx="19" fill="#0F172A" stroke="#F59E0B" stroke-opacity="0.42"/>
      <text x="346" y="25" fill="#FDE68A" font-family="Inter, ui-sans-serif, system-ui, -apple-system, BlinkMacSystemFont, Segoe UI, sans-serif" font-size="15" font-weight="700">Builder</text>
    </g>
  </g>

  <rect x="0.5" y="0.5" width="1279" height="419" rx="31.5" stroke="#F8FAFC" stroke-opacity="0.08"/>
</svg>
